<svg width="52" height="40" viewBox="0 0 52 40" fill="none" xmlns="http://www.w3.org/2000/svg">
<path d="M24.0036 29.7759C22.9739 26.3213 23.677 23.5162 23.677 23.5162L14.2959 10.7984C7.80233 9.30382 8.28955 16.7586 8.28955 16.7586L24.0929 38.1002C24.0929 38.1002 26.1676 40.6582 29.0694 39.4026C29.9074 39.0419 30.4321 38.5566 30.7551 38.0497C26.6744 35.0876 24.589 31.7359 24.0036 29.7732" fill="#D7D7D7" fill-opacity="0.7"/>
<path d="M14.3435 10.8636L7.52153 1.64812C7.52153 1.64812 5.8127 -0.632067 2.98934 0.17159C1.17253 0.689323 0 2.27589 0 4.2007V35.7851C0 38.2664 1.71508 40 4.17079 40C6.62651 40 8.3407 38.2664 8.3407 35.7851V16.8662C8.3407 12.5025 10.5956 9.97423 14.3435 10.8663" fill="#F3F3F3"/>
<path d="M41.6655 6.38519C40.4242 4.11853 39.5221 0.118279 33.1757 0.118279L27.1177 0.11377C23.0174 0.11377 22.9736 3.84974 22.9736 4.28269C22.9736 4.289 22.9736 4.29532 22.9736 4.30253C22.9736 4.30975 24.6691 10.5884 31.2626 10.5767C31.1671 9.46091 31.6936 8.55804 32.8768 8.4922H45.1911C45.1108 8.4922 42.8871 8.30278 41.6699 6.38519" fill="#D7D7D7" fill-opacity="0.7"/>
<path d="M43.2203 20.1926C41.6471 19.3348 39.5867 18.8766 37.7494 18.8766C38.5908 18.9768 39.4131 19.2014 40.19 19.5431C42.3066 20.474 43.6701 22.7966 43.6701 25.2662C43.6684 26.9296 43.0139 28.5245 41.8502 29.7008C40.6865 30.8771 39.1087 31.5386 37.463 31.5403C33.9828 31.5403 31.2559 28.8632 31.2559 25.3455C31.2559 25.8533 31.2202 26.3422 31.2505 26.8221C31.5334 35.9013 37.4255 39.8925 37.4612 39.9178C40.3764 39.9145 43.223 39.0241 45.6306 37.3626C48.0381 35.7011 49.895 33.3454 50.9596 30.6022C50.9596 30.6022 49.3668 23.3477 43.2203 20.1926Z" fill="#D7D7D7" fill-opacity="0.7"/>
<path d="M31.2616 25.3437C31.2616 23.7012 29.8883 21.3534 27.1176 21.3534C24.677 21.3534 22.9727 22.8768 22.9727 25.3437C22.9727 33.4236 29.476 39.9178 37.4687 39.9178C37.4687 39.9178 31.2616 35.5622 31.2616 25.3437Z" fill="#F3F3F3"/>
<path d="M45.1854 0.113708H32.8711C32.9737 0.113708 33.0719 0.113709 33.1718 0.118218C38.4366 0.214729 39.7608 2.83767 40.9236 5.12327C41.1475 5.56433 41.3697 5.99096 41.6053 6.38603C42.2737 7.48643 43.2115 8.49213 45.1818 8.49213C47.9258 8.49213 49.3258 5.98916 49.3258 4.30427C49.3258 1.85993 47.2993 0.115512 45.1818 0.115512" fill="#F3F3F3"/>
<path d="M37.4687 10.4937H31.2616C24.8671 10.4937 22.9727 4.21954 22.9727 4.21954V13.8499C22.9727 17.18 26.3341 18.873 31.2036 18.873H37.4687C47.9243 18.873 50.9662 30.5986 50.9662 30.5986C55.1478 19.02 45.8246 10.4937 37.4687 10.4937Z" fill="#F3F3F3"/>
<path d="M24.0042 29.7758C22.9744 26.3213 23.6776 23.5161 23.6776 23.5161L14.2961 10.7983C7.80231 9.30376 8.28955 16.7586 8.28955 16.7586L24.0934 38.1001C24.0934 38.1001 26.1682 40.6581 29.0702 39.4026C29.9081 39.0418 30.4329 38.5565 30.7559 38.0496C26.6751 35.0875 24.5896 31.7358 24.0042 29.7731" fill="#356BE9"/>
<path d="M14.344 10.8636L7.5218 1.64812C7.5218 1.64812 5.81291 -0.632067 2.98944 0.17159C1.17258 0.689323 0 2.27589 0 4.2007V35.7851C0 38.2664 1.71514 40 4.17095 40C6.62675 40 8.341 38.2664 8.341 35.7851V16.8662C8.341 12.5025 10.596 9.97423 14.344 10.8663" fill="#337BE4"/>
<path d="M41.6652 6.38513C40.4239 4.11847 39.5217 0.118218 33.1751 0.118218L27.1168 0.113708C23.0164 0.113708 22.9727 3.84968 22.9727 4.28263C22.9727 4.28894 22.9727 4.29525 22.9727 4.30247C22.9727 4.30969 24.6682 10.5883 31.2619 10.5766C31.1664 9.46085 31.6929 8.55798 32.8762 8.49213H45.1909C45.1106 8.49213 42.8868 8.30272 41.6696 6.38513" fill="#356BE9"/>
<path d="M43.2286 20.1925C41.6553 19.3347 39.5948 18.8765 37.7575 18.8765C38.5989 18.9768 39.4212 19.2014 40.1981 19.5431C42.3148 20.4739 43.6783 22.7965 43.6783 25.2661C43.6767 26.9296 43.0222 28.5245 41.8584 29.7007C40.6947 30.877 39.1168 31.5386 37.471 31.5402C33.9908 31.5402 31.2637 28.8632 31.2637 25.3455C31.2637 25.8533 31.228 26.3422 31.2583 26.822C31.5412 35.9013 37.4335 39.8925 37.4692 39.9177C40.3845 39.9144 43.2313 39.024 45.6389 37.3625C48.0465 35.701 49.9035 33.3453 50.9681 30.6022C50.9681 30.6022 49.3752 23.3476 43.2286 20.1925Z" fill="#356BE9"/>
<path d="M31.2619 25.3437C31.2619 23.7012 29.8885 21.3533 27.1177 21.3533C24.6771 21.3533 22.9727 22.8768 22.9727 25.3437C22.9727 33.4235 29.4763 39.9177 37.4692 39.9177C37.4692 39.9177 31.2619 35.5621 31.2619 25.3437Z" fill="#337BE4"/>
<path d="M45.1858 0.113708H32.8711C32.9737 0.113708 33.0719 0.113709 33.1718 0.118218C38.4368 0.214729 39.7611 2.83767 40.9239 5.12327C41.1478 5.56433 41.37 5.99096 41.6056 6.38603C42.274 7.48643 43.2119 8.49213 45.1823 8.49213C47.9263 8.49213 49.3264 5.98916 49.3264 4.30427C49.3264 1.85993 47.2999 0.115512 45.1823 0.115512" fill="#337BE4"/>
<path d="M37.4692 10.4935H31.2619C24.8672 10.4935 22.9727 4.21942 22.9727 4.21942V13.8498C22.9727 17.1799 26.3342 18.8729 31.2039 18.8729H37.4692C47.9252 18.8729 50.9673 30.5985 50.9673 30.5985C55.1489 19.0199 45.8254 10.4935 37.4692 10.4935Z" fill="#337BE4"/>
</svg>
